# xmcd
#
# Track frame offsets: 
#        150
#        20280
#        41993
#        64118
#        82423
#        102396
#        118861
#        146937
#        174215
#        198441
#        226044
#        249890
#        273514
#
# Disc length: 3710 seconds
#
# Revision: 0
# Processed by: cddbd v1.5.2PL0 Copyright (c) Steve Scherf et al.
# Submitted via: ExactAudioCopyFreeDBPlugin 1.0
#
DISCID=b80e7c0d
DTITLE=Blues Company - X-Ray Blues
DYEAR=2013
DGENRE=Blues
TTITLE0=The Blues Been Good To Me
TTITLE1=Big Legged Woman
TTITLE2=If I Only Could
TTITLE3=The Mirror
TTITLE4=A Little Bit Of That
TTITLE5=Smoking Gun
TTITLE6=You Drive Me Crazy
TTITLE7=Uh Wee Baby
TTITLE8=Bon Ton Roulez
TTITLE9=Sugar Daddy
TTITLE10=Kiss
TTITLE11=Albatross
TTITLE12=Summertime
EXTD=
EXTT0=
EXTT1=
EXTT2=
EXTT3=
EXTT4=
EXTT5=
EXTT6=
EXTT7=
EXTT8=
EXTT9=
EXTT10=
EXTT11=
EXTT12=
PLAYORDER=
